<mxfile host="app.diagrams.net" modified="2024-07-13T11:38:29.866Z" agent="Mozilla/5.0 (X11; Linux x86_64) AppleWebKit/537.36 (KHTML, like Gecko) Chrome/123.0.0.0 Safari/537.36" etag="ulX3V0MF2lpvZJ9KoZCf" version="24.6.5" type="device">
  <diagram name="Page-1" id="iE0h_F90TXYF1HSEsnaa">
    <mxGraphModel dx="979" dy="548" grid="1" gridSize="10" guides="1" tooltips="1" connect="1" arrows="1" fold="1" page="1" pageScale="1" pageWidth="850" pageHeight="1100" math="0" shadow="0">
      <root>
        <mxCell id="0" />
        <mxCell id="1" parent="0" />
        <mxCell id="Np-iJ-vwZRwEJkUX_ZlG-17" value="" style="edgeStyle=orthogonalEdgeStyle;rounded=0;orthogonalLoop=1;jettySize=auto;html=1;endArrow=none;endFill=0;" parent="1" source="Np-iJ-vwZRwEJkUX_ZlG-39" target="Np-iJ-vwZRwEJkUX_ZlG-2" edge="1">
          <mxGeometry relative="1" as="geometry" />
        </mxCell>
        <mxCell id="Np-iJ-vwZRwEJkUX_ZlG-1" value="Monitor status of soil" style="shape=parallelogram;perimeter=parallelogramPerimeter;whiteSpace=wrap;html=1;fixedSize=1;" parent="1" vertex="1">
          <mxGeometry x="210" y="130" width="180" height="50" as="geometry" />
        </mxCell>
        <mxCell id="Np-iJ-vwZRwEJkUX_ZlG-18" value="" style="edgeStyle=orthogonalEdgeStyle;rounded=0;orthogonalLoop=1;jettySize=auto;html=1;endArrow=none;endFill=0;startArrow=classic;startFill=1;" parent="1" source="Np-iJ-vwZRwEJkUX_ZlG-2" target="Np-iJ-vwZRwEJkUX_ZlG-4" edge="1">
          <mxGeometry relative="1" as="geometry" />
        </mxCell>
        <mxCell id="Np-iJ-vwZRwEJkUX_ZlG-2" value="Monitoring&lt;div&gt;system&lt;/div&gt;" style="shape=hexagon;perimeter=hexagonPerimeter2;whiteSpace=wrap;html=1;fixedSize=1;" parent="1" vertex="1">
          <mxGeometry x="450" y="130" width="100" height="50" as="geometry" />
        </mxCell>
        <mxCell id="Np-iJ-vwZRwEJkUX_ZlG-4" value="&lt;span style=&quot;color: rgb(0, 0, 0); font-family: Helvetica; font-size: 12px; font-style: normal; font-variant-ligatures: normal; font-variant-caps: normal; font-weight: 400; letter-spacing: normal; orphans: 2; text-align: center; text-indent: 0px; text-transform: none; widows: 2; word-spacing: 0px; -webkit-text-stroke-width: 0px; white-space: normal; background-color: rgb(251, 251, 251); text-decoration-thickness: initial; text-decoration-style: initial; text-decoration-color: initial; display: inline !important; float: none;&quot;&gt;Smart green house monitoring&lt;/span&gt;" style="rounded=0;whiteSpace=wrap;html=1;" parent="1" vertex="1">
          <mxGeometry x="600" y="130" width="170" height="50" as="geometry" />
        </mxCell>
        <mxCell id="Np-iJ-vwZRwEJkUX_ZlG-21" value="" style="edgeStyle=orthogonalEdgeStyle;rounded=0;orthogonalLoop=1;jettySize=auto;html=1;" parent="1" source="Np-iJ-vwZRwEJkUX_ZlG-5" target="Np-iJ-vwZRwEJkUX_ZlG-13" edge="1">
          <mxGeometry relative="1" as="geometry" />
        </mxCell>
        <mxCell id="Np-iJ-vwZRwEJkUX_ZlG-5" value="Controller" style="shape=hexagon;perimeter=hexagonPerimeter2;whiteSpace=wrap;html=1;fixedSize=1;" parent="1" vertex="1">
          <mxGeometry x="480" y="250" width="100" height="50" as="geometry" />
        </mxCell>
        <mxCell id="Np-iJ-vwZRwEJkUX_ZlG-16" style="edgeStyle=orthogonalEdgeStyle;rounded=0;orthogonalLoop=1;jettySize=auto;html=1;entryX=0.5;entryY=1;entryDx=0;entryDy=0;endArrow=none;endFill=0;" parent="1" source="Np-iJ-vwZRwEJkUX_ZlG-37" target="Np-iJ-vwZRwEJkUX_ZlG-1" edge="1">
          <mxGeometry relative="1" as="geometry">
            <Array as="points">
              <mxPoint x="300" y="215" />
            </Array>
          </mxGeometry>
        </mxCell>
        <mxCell id="Np-iJ-vwZRwEJkUX_ZlG-20" value="" style="edgeStyle=orthogonalEdgeStyle;rounded=0;orthogonalLoop=1;jettySize=auto;html=1;" parent="1" source="Np-iJ-vwZRwEJkUX_ZlG-6" target="Np-iJ-vwZRwEJkUX_ZlG-5" edge="1">
          <mxGeometry relative="1" as="geometry" />
        </mxCell>
        <mxCell id="Np-iJ-vwZRwEJkUX_ZlG-25" value="" style="edgeStyle=orthogonalEdgeStyle;rounded=0;orthogonalLoop=1;jettySize=auto;html=1;endArrow=none;endFill=0;" parent="1" source="Np-iJ-vwZRwEJkUX_ZlG-27" target="Np-iJ-vwZRwEJkUX_ZlG-11" edge="1">
          <mxGeometry relative="1" as="geometry" />
        </mxCell>
        <mxCell id="Np-iJ-vwZRwEJkUX_ZlG-6" value="Sensor" style="shape=hexagon;perimeter=hexagonPerimeter2;whiteSpace=wrap;html=1;fixedSize=1;" parent="1" vertex="1">
          <mxGeometry x="325" y="250" width="100" height="50" as="geometry" />
        </mxCell>
        <mxCell id="Np-iJ-vwZRwEJkUX_ZlG-15" style="edgeStyle=orthogonalEdgeStyle;rounded=0;orthogonalLoop=1;jettySize=auto;html=1;entryX=0;entryY=0.5;entryDx=0;entryDy=0;endArrow=none;endFill=0;" parent="1" source="Np-iJ-vwZRwEJkUX_ZlG-32" target="Np-iJ-vwZRwEJkUX_ZlG-6" edge="1">
          <mxGeometry relative="1" as="geometry" />
        </mxCell>
        <mxCell id="Np-iJ-vwZRwEJkUX_ZlG-7" value="Measure KPIs" style="shape=parallelogram;perimeter=parallelogramPerimeter;whiteSpace=wrap;html=1;fixedSize=1;" parent="1" vertex="1">
          <mxGeometry x="140" y="250" width="120" height="50" as="geometry" />
        </mxCell>
        <mxCell id="Np-iJ-vwZRwEJkUX_ZlG-23" value="" style="edgeStyle=orthogonalEdgeStyle;rounded=0;orthogonalLoop=1;jettySize=auto;html=1;endArrow=none;endFill=0;" parent="1" source="Np-iJ-vwZRwEJkUX_ZlG-29" target="Np-iJ-vwZRwEJkUX_ZlG-11" edge="1">
          <mxGeometry relative="1" as="geometry" />
        </mxCell>
        <mxCell id="Np-iJ-vwZRwEJkUX_ZlG-9" value="Check sensor is available" style="shape=parallelogram;perimeter=parallelogramPerimeter;whiteSpace=wrap;html=1;fixedSize=1;" parent="1" vertex="1">
          <mxGeometry x="70" y="380" width="180" height="50" as="geometry" />
        </mxCell>
        <mxCell id="Np-iJ-vwZRwEJkUX_ZlG-11" value="DHC" style="shape=hexagon;perimeter=hexagonPerimeter2;whiteSpace=wrap;html=1;fixedSize=1;" parent="1" vertex="1">
          <mxGeometry x="325" y="380" width="100" height="50" as="geometry" />
        </mxCell>
        <mxCell id="Np-iJ-vwZRwEJkUX_ZlG-26" style="edgeStyle=orthogonalEdgeStyle;rounded=0;orthogonalLoop=1;jettySize=auto;html=1;entryX=0.5;entryY=1;entryDx=0;entryDy=0;dashed=1;endArrow=none;endFill=0;" parent="1" source="Np-iJ-vwZRwEJkUX_ZlG-12" target="Np-iJ-vwZRwEJkUX_ZlG-11" edge="1">
          <mxGeometry relative="1" as="geometry">
            <Array as="points">
              <mxPoint x="375" y="490" />
            </Array>
          </mxGeometry>
        </mxCell>
        <mxCell id="Np-iJ-vwZRwEJkUX_ZlG-12" value="&lt;font style=&quot;font-size: 11px;&quot;&gt;Name: DHC&lt;/font&gt;&lt;div style=&quot;font-size: 11px;&quot;&gt;&lt;font style=&quot;font-size: 11px;&quot;&gt;Definition: Device Health and Connection Check&lt;/font&gt;&lt;/div&gt;&lt;div style=&quot;font-size: 11px;&quot;&gt;&lt;font style=&quot;font-size: 11px;&quot;&gt;Priority: High&lt;/font&gt;&lt;/div&gt;&lt;div style=&quot;font-size: 11px;&quot;&gt;&lt;font style=&quot;font-size: 11px;&quot;&gt;Category: FR&lt;/font&gt;&lt;/div&gt;&lt;div style=&quot;font-size: 11px;&quot;&gt;&lt;font style=&quot;font-size: 11px;&quot;&gt;Type: Maintain&lt;/font&gt;&lt;/div&gt;" style="rounded=1;whiteSpace=wrap;html=1;dashed=1;fillColor=#66FF66;align=left;" parent="1" vertex="1">
          <mxGeometry x="405" y="470" width="235" height="80" as="geometry" />
        </mxCell>
        <mxCell id="Np-iJ-vwZRwEJkUX_ZlG-19" value="" style="edgeStyle=orthogonalEdgeStyle;rounded=0;orthogonalLoop=1;jettySize=auto;html=1;" parent="1" source="Np-iJ-vwZRwEJkUX_ZlG-13" target="Np-iJ-vwZRwEJkUX_ZlG-4" edge="1">
          <mxGeometry relative="1" as="geometry" />
        </mxCell>
        <mxCell id="Np-iJ-vwZRwEJkUX_ZlG-13" value="Actuators" style="shape=hexagon;perimeter=hexagonPerimeter2;whiteSpace=wrap;html=1;fixedSize=1;" parent="1" vertex="1">
          <mxGeometry x="635" y="250" width="100" height="50" as="geometry" />
        </mxCell>
        <mxCell id="Np-iJ-vwZRwEJkUX_ZlG-22" style="edgeStyle=orthogonalEdgeStyle;rounded=0;orthogonalLoop=1;jettySize=auto;html=1;endArrow=none;endFill=0;" parent="1" source="Np-iJ-vwZRwEJkUX_ZlG-44" target="Np-iJ-vwZRwEJkUX_ZlG-5" edge="1">
          <mxGeometry relative="1" as="geometry" />
        </mxCell>
        <mxCell id="Np-iJ-vwZRwEJkUX_ZlG-14" value="Choose action based on measured temp value" style="shape=parallelogram;perimeter=parallelogramPerimeter;whiteSpace=wrap;html=1;fixedSize=1;" parent="1" vertex="1">
          <mxGeometry x="440" y="380" width="180" height="50" as="geometry" />
        </mxCell>
        <mxCell id="Np-iJ-vwZRwEJkUX_ZlG-28" value="" style="edgeStyle=orthogonalEdgeStyle;rounded=0;orthogonalLoop=1;jettySize=auto;html=1;endArrow=none;endFill=0;" parent="1" source="Np-iJ-vwZRwEJkUX_ZlG-6" target="Np-iJ-vwZRwEJkUX_ZlG-27" edge="1">
          <mxGeometry relative="1" as="geometry">
            <mxPoint x="375" y="300" as="sourcePoint" />
            <mxPoint x="375" y="380" as="targetPoint" />
          </mxGeometry>
        </mxCell>
        <mxCell id="Np-iJ-vwZRwEJkUX_ZlG-27" value="" style="ellipse;whiteSpace=wrap;html=1;aspect=fixed;" parent="1" vertex="1">
          <mxGeometry x="370" y="340" width="10" height="10" as="geometry" />
        </mxCell>
        <mxCell id="Np-iJ-vwZRwEJkUX_ZlG-31" value="" style="edgeStyle=orthogonalEdgeStyle;rounded=0;orthogonalLoop=1;jettySize=auto;html=1;endArrow=none;endFill=0;" parent="1" source="Np-iJ-vwZRwEJkUX_ZlG-9" target="Np-iJ-vwZRwEJkUX_ZlG-29" edge="1">
          <mxGeometry relative="1" as="geometry">
            <mxPoint x="240" y="405" as="sourcePoint" />
            <mxPoint x="325" y="405" as="targetPoint" />
          </mxGeometry>
        </mxCell>
        <mxCell id="Np-iJ-vwZRwEJkUX_ZlG-29" value="" style="ellipse;whiteSpace=wrap;html=1;aspect=fixed;" parent="1" vertex="1">
          <mxGeometry x="280" y="400" width="10" height="10" as="geometry" />
        </mxCell>
        <mxCell id="Np-iJ-vwZRwEJkUX_ZlG-33" value="" style="edgeStyle=orthogonalEdgeStyle;rounded=0;orthogonalLoop=1;jettySize=auto;html=1;entryX=0;entryY=0.5;entryDx=0;entryDy=0;endArrow=none;endFill=0;" parent="1" source="Np-iJ-vwZRwEJkUX_ZlG-7" target="Np-iJ-vwZRwEJkUX_ZlG-32" edge="1">
          <mxGeometry relative="1" as="geometry">
            <mxPoint x="250" y="275" as="sourcePoint" />
            <mxPoint x="325" y="275" as="targetPoint" />
          </mxGeometry>
        </mxCell>
        <mxCell id="Np-iJ-vwZRwEJkUX_ZlG-32" value="" style="ellipse;whiteSpace=wrap;html=1;aspect=fixed;" parent="1" vertex="1">
          <mxGeometry x="280" y="270" width="10" height="10" as="geometry" />
        </mxCell>
        <mxCell id="Np-iJ-vwZRwEJkUX_ZlG-38" value="" style="edgeStyle=orthogonalEdgeStyle;rounded=0;orthogonalLoop=1;jettySize=auto;html=1;entryX=0.5;entryY=1;entryDx=0;entryDy=0;endArrow=none;endFill=0;" parent="1" source="Np-iJ-vwZRwEJkUX_ZlG-6" target="Np-iJ-vwZRwEJkUX_ZlG-37" edge="1">
          <mxGeometry relative="1" as="geometry">
            <mxPoint x="375" y="250" as="sourcePoint" />
            <mxPoint x="300" y="180" as="targetPoint" />
            <Array as="points">
              <mxPoint x="375" y="240" />
              <mxPoint x="300" y="240" />
            </Array>
          </mxGeometry>
        </mxCell>
        <mxCell id="Np-iJ-vwZRwEJkUX_ZlG-37" value="" style="ellipse;whiteSpace=wrap;html=1;aspect=fixed;" parent="1" vertex="1">
          <mxGeometry x="295" y="210" width="10" height="10" as="geometry" />
        </mxCell>
        <mxCell id="Np-iJ-vwZRwEJkUX_ZlG-40" value="" style="edgeStyle=orthogonalEdgeStyle;rounded=0;orthogonalLoop=1;jettySize=auto;html=1;endArrow=none;endFill=0;" parent="1" source="Np-iJ-vwZRwEJkUX_ZlG-1" target="Np-iJ-vwZRwEJkUX_ZlG-39" edge="1">
          <mxGeometry relative="1" as="geometry">
            <mxPoint x="380" y="155" as="sourcePoint" />
            <mxPoint x="450" y="155" as="targetPoint" />
          </mxGeometry>
        </mxCell>
        <mxCell id="Np-iJ-vwZRwEJkUX_ZlG-39" value="" style="ellipse;whiteSpace=wrap;html=1;aspect=fixed;" parent="1" vertex="1">
          <mxGeometry x="415" y="150" width="10" height="10" as="geometry" />
        </mxCell>
        <mxCell id="Np-iJ-vwZRwEJkUX_ZlG-41" value="&lt;font color=&quot;#6600cc&quot; style=&quot;font-size: 11px;&quot;&gt;Measure temp&lt;/font&gt;" style="text;html=1;align=center;verticalAlign=middle;resizable=0;points=[];autosize=1;strokeColor=none;fillColor=none;" parent="1" vertex="1">
          <mxGeometry x="525" y="180" width="90" height="30" as="geometry" />
        </mxCell>
        <mxCell id="Np-iJ-vwZRwEJkUX_ZlG-42" value="&lt;font color=&quot;#6600cc&quot; style=&quot;font-size: 11px;&quot;&gt;Monitoring&lt;/font&gt;" style="text;html=1;align=center;verticalAlign=middle;resizable=0;points=[];autosize=1;strokeColor=none;fillColor=none;" parent="1" vertex="1">
          <mxGeometry x="600" y="100" width="70" height="30" as="geometry" />
        </mxCell>
        <mxCell id="Np-iJ-vwZRwEJkUX_ZlG-43" value="&lt;font style=&quot;font-size: 11px;&quot; color=&quot;#6600cc&quot;&gt;Apply cold water&lt;/font&gt;&lt;div style=&quot;font-size: 11px;&quot;&gt;&lt;font style=&quot;font-size: 11px;&quot; color=&quot;#6600cc&quot;&gt;in watering system&lt;/font&gt;&lt;/div&gt;" style="text;html=1;align=center;verticalAlign=middle;resizable=0;points=[];autosize=1;strokeColor=none;fillColor=none;" parent="1" vertex="1">
          <mxGeometry x="558" y="300" width="110" height="40" as="geometry" />
        </mxCell>
        <mxCell id="Np-iJ-vwZRwEJkUX_ZlG-45" value="" style="edgeStyle=orthogonalEdgeStyle;rounded=0;orthogonalLoop=1;jettySize=auto;html=1;endArrow=none;endFill=0;" parent="1" source="Np-iJ-vwZRwEJkUX_ZlG-14" target="Np-iJ-vwZRwEJkUX_ZlG-44" edge="1">
          <mxGeometry relative="1" as="geometry">
            <mxPoint x="530" y="380" as="sourcePoint" />
            <mxPoint x="530" y="300" as="targetPoint" />
          </mxGeometry>
        </mxCell>
        <mxCell id="Np-iJ-vwZRwEJkUX_ZlG-44" value="" style="ellipse;whiteSpace=wrap;html=1;aspect=fixed;" parent="1" vertex="1">
          <mxGeometry x="525" y="330" width="10" height="10" as="geometry" />
        </mxCell>
      </root>
    </mxGraphModel>
  </diagram>
</mxfile>
